<svg xmlns="http://www.w3.org/2000/svg" xmlns:xlink="http://www.w3.org/1999/xlink" preserveAspectRatio="xMidYMid" width="14" height="14" viewBox="0 0 14 14">
  <defs>
    <style>

      .cls-2 {
        fill: #9a9a9a;
        filter: url(#color-overlay-1);
      }
    </style>

    <filter id="color-overlay-1" filterUnits="userSpaceOnUse">
      <feFlood flood-color="#0175bc" flood-opacity="1"/>
      <feComposite operator="in" in2="SourceGraphic"/>
      <feBlend mode="normal" in2="SourceGraphic" result="colorOverlay"/>
    </filter>
  </defs>
  <path d="M13.970,12.473 C13.809,13.207 13.371,13.690 12.658,13.925 C12.572,13.954 12.483,13.974 12.396,13.998 C8.799,13.998 5.201,13.998 1.604,13.998 C1.583,13.988 1.562,13.975 1.540,13.970 C0.859,13.836 0.392,13.441 0.126,12.807 C0.070,12.675 0.041,12.532 0.000,12.395 C0.000,12.210 0.000,12.025 0.000,11.841 C0.402,10.661 1.050,9.598 1.593,8.485 C2.757,6.097 3.952,3.724 5.134,1.345 C5.347,0.916 5.618,0.535 6.031,0.276 C6.812,-0.214 7.831,-0.049 8.432,0.688 C8.638,0.940 8.805,1.232 8.951,1.525 C10.527,4.678 12.098,7.833 13.663,10.992 C13.801,11.272 13.889,11.577 14.000,11.870 C14.000,12.045 14.000,12.220 14.000,12.395 C13.990,12.421 13.976,12.446 13.970,12.473 ZM12.996,11.783 C12.909,11.563 12.795,11.353 12.690,11.141 C11.140,8.024 9.591,4.907 8.036,1.793 C7.933,1.588 7.803,1.385 7.645,1.220 C7.275,0.831 6.718,0.831 6.354,1.223 C6.182,1.408 6.042,1.633 5.929,1.861 C4.582,4.554 3.244,7.250 1.903,9.946 C1.625,10.506 1.346,11.065 1.070,11.626 C0.973,11.824 0.903,12.030 0.944,12.257 C1.032,12.753 1.403,13.065 1.914,13.065 C3.610,13.066 5.306,13.066 7.002,13.065 C7.148,13.065 7.293,13.065 7.439,13.065 C8.999,13.065 10.559,13.067 12.119,13.064 C12.793,13.063 13.241,12.409 12.996,11.783 ZM6.543,3.744 C6.853,3.744 7.153,3.744 7.459,3.744 C7.459,5.604 7.459,7.457 7.459,9.322 C7.159,9.322 6.856,9.322 6.543,9.322 C6.543,7.468 6.543,5.612 6.543,3.744 ZM7.456,12.126 C7.147,12.126 6.848,12.126 6.541,12.126 C6.541,11.510 6.541,10.901 6.541,10.279 C6.841,10.279 7.143,10.279 7.456,10.279 C7.456,10.888 7.456,11.500 7.456,12.126 Z" id="path-1" class="cls-2" fill-rule="evenodd"/>
</svg>
