<svg xmlns="http://www.w3.org/2000/svg" xmlns:xlink="http://www.w3.org/1999/xlink" preserveAspectRatio="xMidYMid" width="14" height="14" viewBox="0 0 14 14">
  <defs>
    <style>

      .cls-2 {
        fill: #404040;
      }
    </style>
  </defs>
  <path d="M13.970,12.447 C13.809,13.179 13.371,13.662 12.658,13.896 C12.572,13.924 12.483,13.945 12.396,13.969 C8.799,13.969 5.201,13.969 1.604,13.969 C1.583,13.959 1.562,13.945 1.540,13.941 C0.859,13.807 0.392,13.413 0.126,12.780 C0.070,12.648 0.041,12.506 0.000,12.369 C0.000,12.185 0.000,12.000 0.000,11.816 C0.402,10.639 1.050,9.578 1.593,8.468 C2.757,6.085 3.952,3.716 5.134,1.342 C5.347,0.915 5.618,0.534 6.031,0.276 C6.812,-0.214 7.831,-0.049 8.432,0.686 C8.638,0.938 8.805,1.230 8.951,1.522 C10.527,4.668 12.098,7.817 13.663,10.969 C13.801,11.248 13.889,11.552 14.000,11.845 C14.000,12.020 14.000,12.194 14.000,12.369 C13.990,12.395 13.976,12.420 13.970,12.447 ZM12.996,11.759 C12.909,11.539 12.795,11.330 12.690,11.118 C11.140,8.007 9.591,4.897 8.036,1.789 C7.933,1.584 7.803,1.383 7.645,1.217 C7.275,0.830 6.718,0.829 6.354,1.221 C6.182,1.405 6.042,1.630 5.929,1.857 C4.582,4.544 3.244,7.235 1.903,9.925 C1.625,10.484 1.346,11.042 1.070,11.602 C0.973,11.800 0.903,12.005 0.944,12.232 C1.032,12.727 1.403,13.038 1.914,13.038 C3.610,13.039 5.306,13.038 7.002,13.038 C7.148,13.038 7.293,13.038 7.439,13.038 C8.999,13.038 10.559,13.040 12.119,13.037 C12.793,13.036 13.241,12.384 12.996,11.759 ZM6.543,3.736 C6.853,3.736 7.153,3.736 7.459,3.736 C7.459,5.592 7.459,7.441 7.459,9.302 C7.159,9.302 6.856,9.302 6.543,9.302 C6.543,7.453 6.543,5.600 6.543,3.736 ZM7.456,12.101 C7.147,12.101 6.848,12.101 6.541,12.101 C6.541,11.486 6.541,10.878 6.541,10.257 C6.841,10.257 7.143,10.257 7.456,10.257 C7.456,10.865 7.456,11.476 7.456,12.101 Z" id="path-1" class="cls-2" fill-rule="evenodd"/>
</svg>
