<?xml version="1.0" encoding="utf-8"?>
<!-- Generator: Adobe Illustrator 19.2.0, SVG Export Plug-In . SVG Version: 6.00 Build 0)  -->
<!DOCTYPE svg PUBLIC "-//W3C//DTD SVG 1.1//EN" "http://www.w3.org/Graphics/SVG/1.1/DTD/svg11.dtd">
<svg version="1.1" id="Layer_1" xmlns="http://www.w3.org/2000/svg" xmlns:xlink="http://www.w3.org/1999/xlink" x="0px" y="0px"
	 viewBox="0 0 360 360" style="enable-background:new 0 0 360 360;" xml:space="preserve">
<style type="text/css">
	.st0{fill-rule:evenodd;clip-rule:evenodd;fill:#F1C22C;}
</style>
<g>
	<g>
		<path class="st0" d="M335.3,13.2H24.7c-5.7,0-10.4,4.7-10.4,10.6V253c0,21.8,6.3,20.4,23.6,20.4h44.2c0,0,1.3,45.7,1.3,63.6
			c0,7.8,5.2,9.7,9.5,9.7c3.7,0,5.7-1.6,8.8-4.7l68.9-68.6h161.8c10.3,0,13.2-8,13.2-22.1V23.8C345.6,17.9,341,13.2,335.3,13.2z
			 M321.9,249.8H156.3L109,297.1v-47.3H38v-213h283.9V249.8z M97.1,107.8h165.6c6.5,0,11.8-5.3,11.8-11.8c0-6.5-5.3-11.8-11.8-11.8
			H97.1c-6.5,0-11.8,5.3-11.8,11.8C85.3,102.5,90.6,107.8,97.1,107.8z M97.1,155.2h165.6c6.5,0,11.8-5.3,11.8-11.8
			c0-6.5-5.3-11.8-11.8-11.8H97.1c-6.5,0-11.8,5.3-11.8,11.8C85.3,149.9,90.6,155.2,97.1,155.2z M97.1,202.5h165.6
			c6.5,0,11.8-5.3,11.8-11.8c0-6.5-5.3-11.8-11.8-11.8H97.1c-6.5,0-11.8,5.3-11.8,11.8C85.3,197.2,90.6,202.5,97.1,202.5z"/>
	</g>
</g>
</svg>
