<svg xmlns="http://www.w3.org/2000/svg" xmlns:xlink="http://www.w3.org/1999/xlink" preserveAspectRatio="xMidYMid" width="11" height="11" viewBox="0 0 11 11">
  <defs>
    <style>

      .cls-2 {
        fill: #bfc5d1;
      }
    </style>
  </defs>
  <path d="M6.633,5.219 C6.633,5.219 10.168,8.754 10.168,8.754 C10.559,9.145 10.559,9.778 10.168,10.168 C9.778,10.559 9.145,10.559 8.754,10.168 C8.754,10.168 5.219,6.633 5.219,6.633 C5.219,6.633 1.683,10.168 1.683,10.168 C1.293,10.559 0.660,10.559 0.269,10.168 C-0.122,9.778 -0.122,9.145 0.269,8.754 C0.269,8.754 3.805,5.219 3.805,5.219 C3.805,5.219 0.269,1.683 0.269,1.683 C-0.122,1.293 -0.122,0.660 0.269,0.269 C0.660,-0.122 1.293,-0.122 1.683,0.269 C1.683,0.269 5.219,3.805 5.219,3.805 C5.219,3.805 8.754,0.269 8.754,0.269 C9.145,-0.122 9.778,-0.122 10.168,0.269 C10.559,0.660 10.559,1.293 10.168,1.683 C10.168,1.683 6.633,5.219 6.633,5.219 Z" id="path-1" class="cls-2" fill-rule="evenodd"/>
</svg>
