<svg xmlns="http://www.w3.org/2000/svg" xmlns:xlink="http://www.w3.org/1999/xlink" preserveAspectRatio="xMidYMid" width="26" height="21" viewBox="0 0 26 21">
  <defs>
    <style>

      .cls-2 {
        fill: #666666;
        filter: url(#color-overlay-1);
      }
    </style>

    <filter id="color-overlay-1" filterUnits="userSpaceOnUse">
      <feFlood flood-color="#f36f6e" flood-opacity="1"/>
      <feComposite operator="in" in2="SourceGraphic"/>
      <feBlend mode="normal" in2="SourceGraphic" result="colorOverlay"/>
    </filter>
  </defs>
  <path d="M24.609,11.917 C24.609,11.917 8.367,11.917 8.367,11.917 C7.597,11.917 6.973,11.282 6.973,10.500 C6.973,9.718 7.597,9.083 8.367,9.083 C8.367,9.083 24.609,9.083 24.609,9.083 C25.379,9.083 26.003,9.718 26.003,10.500 C26.003,11.282 25.379,11.917 24.609,11.917 ZM24.609,2.834 C24.609,2.834 8.367,2.834 8.367,2.834 C7.597,2.834 6.973,2.199 6.973,1.417 C6.973,0.634 7.597,0.000 8.367,0.000 C8.367,0.000 24.609,0.000 24.609,0.000 C25.379,0.000 26.003,0.634 26.003,1.417 C26.003,2.199 25.379,2.834 24.609,2.834 ZM2.791,21.000 C2.791,21.000 1.397,21.000 1.397,21.000 C0.628,21.000 0.003,20.366 0.003,19.583 C0.003,18.801 0.628,18.167 1.397,18.167 C1.397,18.167 2.791,18.167 2.791,18.167 C3.561,18.167 4.185,18.801 4.185,19.583 C4.185,20.366 3.561,21.000 2.791,21.000 ZM2.791,11.917 C2.791,11.917 1.397,11.917 1.397,11.917 C0.628,11.917 0.003,11.282 0.003,10.500 C0.003,9.718 0.628,9.083 1.397,9.083 C1.397,9.083 2.791,9.083 2.791,9.083 C3.561,9.083 4.185,9.718 4.185,10.500 C4.185,11.282 3.561,11.917 2.791,11.917 ZM2.791,2.834 C2.791,2.834 1.397,2.834 1.397,2.834 C0.628,2.834 0.003,2.199 0.003,1.417 C0.003,0.634 0.628,0.000 1.397,0.000 C1.397,0.000 2.791,0.000 2.791,0.000 C3.561,0.000 4.185,0.634 4.185,1.417 C4.185,2.199 3.561,2.834 2.791,2.834 ZM8.367,18.167 C8.367,18.167 24.609,18.167 24.609,18.167 C25.379,18.167 26.003,18.801 26.003,19.583 C26.003,20.366 25.379,21.000 24.609,21.000 C24.609,21.000 8.367,21.000 8.367,21.000 C7.597,21.000 6.973,20.366 6.973,19.583 C6.973,18.801 7.597,18.167 8.367,18.167 Z" id="path-1" class="cls-2" fill-rule="evenodd"/>
</svg>
