<svg xmlns="http://www.w3.org/2000/svg" xmlns:xlink="http://www.w3.org/1999/xlink" preserveAspectRatio="xMidYMid" width="21" height="28" viewBox="0 0 21 28">
  <defs>
    <style>

      .cls-2 {
        fill: #666666;
        filter: url(#color-overlay-1);
      }
    </style>

    <filter id="color-overlay-1" filterUnits="userSpaceOnUse">
      <feFlood flood-color="#5c9fc8" flood-opacity="1"/>
      <feComposite operator="in" in2="SourceGraphic"/>
      <feBlend mode="normal" in2="SourceGraphic" result="colorOverlay"/>
    </filter>
  </defs>
  <path d="M19.253,28.000 C19.253,28.000 1.754,28.000 1.754,28.000 C0.789,28.000 0.004,27.215 0.004,26.250 C0.004,26.250 0.004,7.875 0.004,7.875 C0.004,7.158 0.372,6.269 0.879,5.762 C0.879,5.762 5.766,0.875 5.766,0.875 C6.273,0.368 7.162,0.000 7.878,0.000 C7.878,0.000 19.253,0.000 19.253,0.000 C20.218,0.000 21.003,0.785 21.003,1.750 C21.003,1.750 21.003,26.250 21.003,26.250 C21.003,27.215 20.218,28.000 19.253,28.000 ZM6.128,2.987 C6.128,2.987 2.991,6.125 2.991,6.125 C2.991,6.125 6.128,6.125 6.128,6.125 C6.128,6.125 6.128,2.987 6.128,2.987 ZM19.253,1.750 C19.253,1.750 7.878,1.750 7.878,1.750 C7.878,1.750 7.878,6.125 7.878,6.125 C7.878,7.090 7.093,7.875 6.128,7.875 C6.128,7.875 1.754,7.875 1.754,7.875 C1.754,7.875 1.754,26.250 1.754,26.250 C1.754,26.250 19.253,26.250 19.253,26.250 C19.253,26.250 19.254,26.250 19.254,26.250 C19.254,26.250 19.253,1.750 19.253,1.750 ZM15.753,24.500 C15.753,24.500 5.253,24.500 5.253,24.500 C4.770,24.500 4.379,24.108 4.379,23.625 C4.379,23.142 4.770,22.750 5.253,22.750 C5.253,22.750 15.753,22.750 15.753,22.750 C16.237,22.750 16.628,23.142 16.628,23.625 C16.628,24.108 16.237,24.500 15.753,24.500 ZM15.753,20.125 C15.753,20.125 5.253,20.125 5.253,20.125 C4.770,20.125 4.379,19.733 4.379,19.250 C4.379,18.767 4.770,18.375 5.253,18.375 C5.253,18.375 15.753,18.375 15.753,18.375 C16.237,18.375 16.628,18.767 16.628,19.250 C16.628,19.733 16.237,20.125 15.753,20.125 ZM15.753,15.750 C15.753,15.750 5.253,15.750 5.253,15.750 C4.770,15.750 4.379,15.358 4.379,14.875 C4.379,14.392 4.770,14.000 5.253,14.000 C5.253,14.000 15.753,14.000 15.753,14.000 C16.237,14.000 16.628,14.392 16.628,14.875 C16.628,15.358 16.237,15.750 15.753,15.750 ZM15.753,11.375 C15.753,11.375 5.253,11.375 5.253,11.375 C4.770,11.375 4.379,10.983 4.379,10.500 C4.379,10.017 4.770,9.625 5.253,9.625 C5.253,9.625 15.753,9.625 15.753,9.625 C16.237,9.625 16.628,10.017 16.628,10.500 C16.628,10.983 16.237,11.375 15.753,11.375 ZM15.753,7.000 C15.753,7.000 10.503,7.000 10.503,7.000 C10.020,7.000 9.628,6.608 9.628,6.125 C9.628,5.642 10.020,5.250 10.503,5.250 C10.503,5.250 15.753,5.250 15.753,5.250 C16.237,5.250 16.628,5.642 16.628,6.125 C16.628,6.608 16.237,7.000 15.753,7.000 Z" id="path-1" class="cls-2" fill-rule="evenodd"/>
</svg>
