<?xml version="1.0" encoding="utf-8"?>
<!-- Generator: Adobe Illustrator 16.0.0, SVG Export Plug-In . SVG Version: 6.00 Build 0)  -->
<!DOCTYPE svg PUBLIC "-//W3C//DTD SVG 1.1//EN" "http://www.w3.org/Graphics/SVG/1.1/DTD/svg11.dtd">
<svg version="1.1" id="Layer_1" xmlns="http://www.w3.org/2000/svg" xmlns:xlink="http://www.w3.org/1999/xlink" x="0px" y="0px"
	 width="24px" height="25.5px" viewBox="0 0 24 25.5" enable-background="new 0 0 24 25.5" xml:space="preserve">
<g id="doc_icon" transform="translate(0 0.75)">
	<path id="XMLID_1_" fill="none" stroke="#4B78BC" stroke-width="1.5" stroke-miterlimit="10" d="M19.471,24H4.528
		c-0.568,0.046-1.066-0.378-1.112-0.947c-0.003-0.041-0.004-0.082-0.002-0.124V1.071C3.429,0.469,3.926-0.008,4.528,0h14.83
		c0.603-0.008,1.1,0.469,1.115,1.071v21.858c0.069,0.519-0.295,0.996-0.814,1.065C19.596,24.002,19.533,24.004,19.471,24z"/>
	<rect id="XMLID_28_" y="9.715" fill="#4B78BC" width="24" height="10.809"/>
	<g id="XMLID_3_" transform="translate(2.048 11.475)">
		<path id="XMLID_4_" fill="#FFFFFF" d="M0,7.396V0.228h2.5c2.5,0,3.868,1.138,3.868,3.527c0.048,1.012-0.322,1.998-1.024,2.729
			c-0.731,0.702-1.718,1.071-2.73,1.024H0V7.396z M1.593,1.595v4.552h0.8c0.61,0.04,1.202-0.214,1.593-0.683
			C4.407,5,4.613,4.38,4.555,3.757c0.024-0.586-0.18-1.156-0.569-1.594C3.514,1.755,2.901,1.551,2.279,1.595H1.593L1.593,1.595z"/>
		<path id="XMLID_7_" fill="#FFFFFF" d="M10.4,7.629C9.46,7.654,8.552,7.282,7.9,6.604C7.216,5.906,6.845,4.959,6.873,3.982
			C6.825,2.97,7.195,1.983,7.897,1.252c0.686-0.699,1.639-1.072,2.618-1.023c0.939-0.025,1.848,0.346,2.5,1.023
			c0.648,0.712,0.977,1.657,0.91,2.617c0.047,1.012-0.323,2-1.024,2.73C12.262,7.296,11.345,7.674,10.4,7.629z M10.514,1.597
			C9.973,1.584,9.462,1.839,9.149,2.281C8.813,2.785,8.653,3.384,8.694,3.988C8.653,4.591,8.813,5.192,9.149,5.695
			c0.327,0.412,0.843,0.627,1.366,0.568c0.514,0.005,1.006-0.201,1.364-0.568c0.351-0.496,0.513-1.102,0.455-1.707
			c0.075-0.606-0.088-1.219-0.455-1.707c-0.345-0.402-0.836-0.65-1.364-0.688V1.597z"/>
		<path id="XMLID_10_" fill="#FFFFFF" d="M20.132,7.168c-0.654,0.242-1.35,0.358-2.048,0.342c-0.979,0.048-1.931-0.324-2.616-1.024
			c-0.666-0.701-0.998-1.654-0.91-2.617c-0.027-1.043,0.338-2.058,1.023-2.844C16.311,0.322,17.3-0.048,18.311,0
			c0.613,0.013,1.223,0.089,1.82,0.228V1.82c-0.469-0.32-1.027-0.48-1.594-0.455c-0.609-0.04-1.201,0.214-1.593,0.684
			c-0.759,1.011-0.759,2.401,0,3.412c0.407,0.436,1.001,0.648,1.593,0.569c0.604,0.041,1.203-0.119,1.707-0.455v1.593H20.132z"/>
	</g>
	
		<line id="XMLID_12_" fill="none" stroke="#4B78BC" stroke-width="1.5" stroke-linecap="round" stroke-miterlimit="10" x1="7.449" y1="5.25" x2="16.551" y2="5.25"/>
</g>
</svg>
