<svg class="svg-icon" style="width: 1em; height: 1em;vertical-align: middle;fill:0175BC;overflow: hidden;" viewBox="0 0 1024 1024" version="1.1" xmlns="http://www.w3.org/2000/svg"><path d="M567.788 226.214l42.427-42.427 180 180.001-42.426 42.427z" fill="#0175BC" /><path d="M184 820a30 30 0 0 1-30-30.81l5-185a30 30 0 0 1 8.78-20.4l475-475a30 30 0 0 1 42.42 0l180 180a30 30 0 0 1 0 42.42l-475 475a30 30 0 0 1-20.4 8.78l-185 5z m34.67-202.24l-3.83 141.4 141.4-3.83L801.57 310 664 172.43zM886 928H142a30 30 0 0 1 0-60h744a30 30 0 0 1 0 60z" fill="#0175BC" /></svg>