<svg class="svg-icon" style="width: 1em; height: 1em;vertical-align: middle;fill: currentColor;overflow: hidden;" viewBox="0 0 1024 1024" version="1.1" xmlns="http://www.w3.org/2000/svg"><path d="M941.04 398.64 850.736 489.136 850.736 489.152 805.584 534.4 805.584 534.384 384.32 960.528 128.32 960.528C92.976 960.528 64.32 931.872 64.32 896.512L64.32 640.528 625.008 81.856C649.952 56.864 690.368 56.864 715.296 81.856L941.04 308.128C965.968 333.12 965.968 373.648 941.04 398.64ZM128.32 670.096 128.32 896.512 353.904 896.512 760.432 489.136 534.704 262.848 128.32 670.096ZM670.16 127.104 579.856 217.6 805.584 443.872 895.888 353.392 670.16 127.104Z"  /></svg>