<svg xmlns="http://www.w3.org/2000/svg" xmlns:xlink="http://www.w3.org/1999/xlink" preserveAspectRatio="xMidYMid" width="16" height="16" viewBox="0 0 16 16">
  <defs>
    <style>

      .cls-2 {
        fill: #9a9a9a;
      }
    </style>
  </defs>
  <path d="M13.000,16.000 C13.000,16.000 3.000,16.000 3.000,16.000 C1.343,16.000 0.000,14.657 0.000,13.000 C0.000,13.000 0.000,3.000 0.000,3.000 C0.000,1.343 1.343,0.000 3.000,0.000 C3.000,0.000 7.000,0.000 7.000,0.000 C8.304,0.000 9.403,0.838 9.816,2.000 C9.816,2.000 13.000,2.000 13.000,2.000 C14.657,2.000 16.000,3.343 16.000,5.000 C16.000,5.000 16.000,13.000 16.000,13.000 C16.000,14.657 14.657,16.000 13.000,16.000 ZM13.000,4.000 C13.000,4.000 8.000,4.000 8.000,4.000 C8.000,4.000 8.000,3.000 8.000,3.000 C8.000,2.448 7.552,2.000 7.000,2.000 C7.000,2.000 3.000,2.000 3.000,2.000 C2.448,2.000 2.000,2.448 2.000,3.000 C2.000,3.000 2.000,13.000 2.000,13.000 C2.000,13.552 2.448,14.000 3.000,14.000 C3.000,14.000 4.000,14.000 4.000,14.000 C4.000,14.000 4.000,7.000 4.000,7.000 C4.000,6.448 4.448,6.000 5.000,6.000 C5.000,6.000 14.000,6.000 14.000,6.000 C14.000,6.000 14.000,5.000 14.000,5.000 C14.000,4.448 13.552,4.000 13.000,4.000 Z" id="path-1" class="cls-2" fill-rule="evenodd"/>
</svg>
