<svg xmlns="http://www.w3.org/2000/svg" xmlns:xlink="http://www.w3.org/1999/xlink" preserveAspectRatio="xMidYMid" width="16" height="16" viewBox="0 0 16 16">
  <defs>
    <style>

      .cls-2 {
        fill: #054773;
      }
    </style>
  </defs>
  <path d="M12.000,16.000 C12.000,16.000 12.000,12.000 12.000,12.000 C12.000,12.000 16.000,12.000 16.000,12.000 C16.000,12.000 16.000,16.000 16.000,16.000 C16.000,16.000 12.000,16.000 12.000,16.000 ZM12.000,6.000 C12.000,6.000 16.000,6.000 16.000,6.000 C16.000,6.000 16.000,10.000 16.000,10.000 C16.000,10.000 12.000,10.000 12.000,10.000 C12.000,10.000 12.000,6.000 12.000,6.000 ZM12.000,0.000 C12.000,0.000 16.000,0.000 16.000,0.000 C16.000,0.000 16.000,4.000 16.000,4.000 C16.000,4.000 12.000,4.000 12.000,4.000 C12.000,4.000 12.000,0.000 12.000,0.000 ZM6.000,12.000 C6.000,12.000 10.000,12.000 10.000,12.000 C10.000,12.000 10.000,16.000 10.000,16.000 C10.000,16.000 6.000,16.000 6.000,16.000 C6.000,16.000 6.000,12.000 6.000,12.000 ZM6.000,6.000 C6.000,6.000 10.000,6.000 10.000,6.000 C10.000,6.000 10.000,10.000 10.000,10.000 C10.000,10.000 6.000,10.000 6.000,10.000 C6.000,10.000 6.000,6.000 6.000,6.000 ZM6.000,0.000 C6.000,0.000 10.000,0.000 10.000,0.000 C10.000,0.000 10.000,4.000 10.000,4.000 C10.000,4.000 6.000,4.000 6.000,4.000 C6.000,4.000 6.000,0.000 6.000,0.000 ZM0.000,12.000 C0.000,12.000 4.000,12.000 4.000,12.000 C4.000,12.000 4.000,16.000 4.000,16.000 C4.000,16.000 0.000,16.000 0.000,16.000 C0.000,16.000 0.000,12.000 0.000,12.000 ZM0.000,6.000 C0.000,6.000 4.000,6.000 4.000,6.000 C4.000,6.000 4.000,10.000 4.000,10.000 C4.000,10.000 0.000,10.000 0.000,10.000 C0.000,10.000 0.000,6.000 0.000,6.000 ZM0.000,0.000 C0.000,0.000 4.000,0.000 4.000,0.000 C4.000,0.000 4.000,4.000 4.000,4.000 C4.000,4.000 0.000,4.000 0.000,4.000 C0.000,4.000 0.000,0.000 0.000,0.000 Z" id="path-1" class="cls-2" fill-rule="evenodd"/>
</svg>
