<svg xmlns="http://www.w3.org/2000/svg" xmlns:xlink="http://www.w3.org/1999/xlink" preserveAspectRatio="xMidYMid" width="19" height="20" viewBox="0 0 19 20">
  <defs>
    <style>

      .cls-2 {
        fill: #054773;
      }
    </style>
  </defs>
  <path d="M16.210,2.783 C12.500,-0.926 6.485,-0.926 2.776,2.783 C-0.936,6.493 -0.936,12.511 2.776,16.220 C6.486,19.933 12.502,19.931 16.210,16.220 C19.922,12.514 19.922,6.493 16.210,2.783 ZM9.094,17.147 C8.061,17.147 7.220,16.314 7.220,15.288 C7.220,14.239 8.043,13.417 9.094,13.417 C10.118,13.417 10.951,14.254 10.951,15.288 C10.951,16.297 10.100,17.147 9.094,17.147 ZM10.398,10.635 C10.398,10.635 10.398,11.662 10.398,11.662 C10.398,12.164 10.203,12.361 9.702,12.361 C9.702,12.361 8.358,12.361 8.358,12.361 C7.857,12.361 7.661,12.164 7.661,11.662 C7.661,11.662 7.661,9.362 7.661,9.362 C7.661,8.780 8.258,8.608 8.784,8.454 C8.912,8.414 9.045,8.377 9.178,8.333 C9.853,8.088 10.275,7.782 10.275,7.023 C10.275,6.776 10.275,6.026 9.058,6.026 C8.306,6.026 7.623,6.315 7.215,6.487 C6.986,6.583 6.872,6.633 6.756,6.633 C6.521,6.633 6.299,6.443 6.250,6.201 C6.250,6.201 5.786,4.998 5.786,4.998 C5.728,4.887 5.728,4.774 5.728,4.684 C5.728,3.784 8.533,3.287 9.463,3.287 C11.806,3.287 13.381,4.796 13.381,7.041 C13.381,9.484 11.536,10.240 10.398,10.635 Z" id="path-1" class="cls-2" fill-rule="evenodd"/>
</svg>
