<svg xmlns="http://www.w3.org/2000/svg" xmlns:xlink="http://www.w3.org/1999/xlink" preserveAspectRatio="xMidYMid" width="20" height="20" viewBox="0 0 20 20">
  <defs>
    <style>

      .cls-2 {
        fill: #ffffff;
      }
    </style>
  </defs>
  <path d="M10.000,20.001 C4.485,20.001 -0.001,15.514 -0.001,9.999 C-0.001,4.486 4.485,-0.001 10.000,-0.001 C15.514,-0.001 20.000,4.486 20.000,9.999 C20.000,15.514 15.514,20.001 10.000,20.001 ZM10.000,1.998 C5.588,1.998 1.998,5.587 1.998,9.999 C1.998,14.412 5.588,18.002 10.000,18.002 C14.412,18.002 18.002,14.412 18.002,9.999 C18.002,5.587 14.412,1.998 10.000,1.998 ZM10.413,10.127 C10.413,10.127 10.413,10.951 10.413,10.951 C10.413,11.169 10.371,11.205 10.114,11.205 C10.114,11.205 9.073,11.205 9.073,11.205 C8.816,11.205 8.773,11.169 8.773,10.951 C8.773,10.951 8.773,9.435 8.773,9.435 C8.773,9.144 9.287,9.097 9.786,8.952 C10.299,8.794 10.799,8.551 10.799,7.897 C10.799,7.340 10.385,7.037 9.614,7.037 C8.731,7.037 7.974,7.437 7.832,7.437 C7.760,7.437 7.690,7.377 7.675,7.316 C7.675,7.316 7.304,6.492 7.304,6.492 C7.276,6.443 7.276,6.407 7.276,6.358 C7.276,6.043 8.973,5.643 9.928,5.643 C11.654,5.643 12.724,6.588 12.724,7.909 C12.724,9.471 11.255,9.884 10.413,10.127 ZM9.643,12.308 C10.314,12.308 10.841,12.768 10.841,13.339 C10.841,13.884 10.299,14.357 9.643,14.357 C8.959,14.357 8.431,13.884 8.431,13.339 C8.431,12.757 8.959,12.308 9.643,12.308 Z" id="path-1" class="cls-2" fill-rule="evenodd"/>
</svg>
