<?xml version="1.0" encoding="UTF-8"?>
<svg width="86px" height="86px" viewBox="0 0 86 86" version="1.1" xmlns="http://www.w3.org/2000/svg" xmlns:xlink="http://www.w3.org/1999/xlink">
    <!-- Generator: Sketch 52.2 (67145) - http://www.bohemiancoding.com/sketch -->
    <title>Slice 1</title>
    <desc>Created with Sketch.</desc>
    <g id="Page-1" stroke="none" stroke-width="1" fill="none" fill-rule="evenodd" stroke-linecap="round" stroke-linejoin="round">
        <g id="image_attachments" transform="translate(2.000000, 2.000000)" stroke="#9400AA" stroke-width="5">
            <polyline id="Path" points="81.311 47.04 81.311 80.715 0.877 80.715 0.877 11.613 47.118 11.613"></polyline>
            <polyline id="Path" points="0.877 53.095 16.141 37.832 47.025 68.717 62.284 53.459 80.94 72.115"></polyline>
            <path d="M58.095,32.728 C58.095,37.939 62.926,42.167 68.888,42.167 C74.85,42.167 79.684,37.939 79.684,32.728 L79.684,10.155 C79.684,4.939 74.85,0.715 68.888,0.715 C62.926,0.715 58.095,4.939 58.095,10.155 L58.095,12.174 L58.095,17.586 C58.095,20.822 60.721,23.45 63.959,23.45 C67.199,23.45 69.825,20.823 69.825,17.586 L69.825,12.174" id="Path"></path>
        </g>
    </g>
</svg>