<svg xmlns="http://www.w3.org/2000/svg" xmlns:xlink="http://www.w3.org/1999/xlink" preserveAspectRatio="xMidYMid" width="29" height="23" viewBox="0 0 29 23">
  <defs>
    <style>

      .cls-2 {
        fill: #666666;
        filter: url(#color-overlay-1);
      }
    </style>

    <filter id="color-overlay-1" filterUnits="userSpaceOnUse">
      <feFlood flood-color="#b583c4" flood-opacity="1"/>
      <feComposite operator="in" in2="SourceGraphic"/>
      <feBlend mode="normal" in2="SourceGraphic" result="colorOverlay"/>
    </filter>
  </defs>
  <path d="M27.932,23.000 C27.932,23.000 1.071,23.000 1.071,23.000 C0.480,23.000 0.001,22.497 0.001,21.876 C0.001,21.876 0.001,1.124 0.001,1.124 C0.001,0.503 0.480,0.000 1.071,0.000 C1.071,0.000 27.932,0.000 27.932,0.000 C28.522,0.000 29.001,0.503 29.001,1.124 C29.001,1.124 29.001,21.876 29.001,21.876 C29.001,22.497 28.522,23.000 27.932,23.000 ZM27.000,2.000 C27.000,2.000 2.000,2.000 2.000,2.000 C2.000,2.000 2.000,16.000 2.000,16.000 C2.000,16.000 8.634,9.283 8.634,9.283 C9.056,8.879 9.705,8.895 10.109,9.319 C10.109,9.319 13.913,15.146 13.913,15.146 C13.913,15.146 16.381,11.687 16.381,11.687 C16.562,11.435 16.834,11.273 17.133,11.243 C17.433,11.211 17.730,11.316 17.952,11.526 C17.952,11.526 27.000,17.000 27.000,17.000 C27.000,17.000 27.000,2.000 27.000,2.000 ZM27.000,20.000 C27.000,20.000 17.391,14.018 17.391,14.018 C17.391,14.018 14.884,16.531 14.884,16.531 C14.698,16.791 14.414,16.954 14.104,16.977 C13.793,16.998 13.492,16.881 13.273,16.651 C13.273,16.651 9.318,11.666 9.318,11.666 C9.318,11.666 2.000,19.000 2.000,19.000 C2.000,19.000 2.000,21.000 2.000,21.000 C2.000,21.000 27.000,21.000 27.000,21.000 C27.000,21.000 27.000,20.000 27.000,20.000 ZM22.050,3.371 C24.114,3.371 25.793,5.136 25.793,7.304 C25.793,9.473 24.114,11.238 22.050,11.238 C19.986,11.238 18.307,9.473 18.307,7.304 C18.307,5.136 19.986,3.371 22.050,3.371 ZM22.050,8.990 C22.934,8.990 23.654,8.234 23.654,7.304 C23.654,6.375 22.934,5.619 22.050,5.619 C21.165,5.619 20.445,6.375 20.445,7.304 C20.445,8.234 21.165,8.990 22.050,8.990 Z" id="path-1" class="cls-2" fill-rule="evenodd"/>
</svg>
