<?xml version="1.0" encoding="utf-8"?>
<!-- Generator: Adobe Illustrator 16.0.0, SVG Export Plug-In . SVG Version: 6.00 Build 0)  -->
<!DOCTYPE svg PUBLIC "-//W3C//DTD SVG 1.0//EN" "http://www.w3.org/TR/2001/REC-SVG-20010904/DTD/svg10.dtd">
<svg version="1.0" id="Isolation_Mode" xmlns="http://www.w3.org/2000/svg" xmlns:xlink="http://www.w3.org/1999/xlink" x="0px"
	 y="0px" width="120px" height="120px" viewBox="0 0 120 120" enable-background="new 0 0 120 120" xml:space="preserve">
<path fill="none" stroke="#000000" stroke-width="5" stroke-linecap="round" stroke-linejoin="round" stroke-miterlimit="10" d="
	M92.853,85.81c0.256,0.256,0.255,0.668,0.001,0.922l-24.739,24.737c-0.256,0.255-0.668,0.255-0.923,0l-38.59-38.596
	c-0.254-0.254-0.255-0.667,0-0.923l1.149-23.285l23.59-1.451c0.256-0.255,0.668-0.254,0.923-0.001L92.853,85.81z"/>
<path fill="none" stroke="#000000" stroke-width="5" stroke-linecap="round" stroke-linejoin="round" stroke-miterlimit="10" d="
	M44.89,40.468l-0.13-12.467l23.59-1.451c0.255-0.254,0.668-0.254,0.923,0l38.59,38.595c0.255,0.255,0.254,0.667,0,0.923
	L96.78,77.149"/>
<circle fill="none" stroke="#000000" stroke-width="5" stroke-linecap="round" stroke-linejoin="round" stroke-miterlimit="10" cx="46.919" cy="65.752" r="7.361"/>
<line fill="none" stroke="#000000" stroke-width="5" stroke-linecap="round" stroke-linejoin="round" stroke-miterlimit="10" x1="63.794" y1="93.781" x2="74.946" y2="82.633"/>
</svg>
