<svg xmlns="http://www.w3.org/2000/svg" xmlns:xlink="http://www.w3.org/1999/xlink" preserveAspectRatio="xMidYMid" width="28" height="25" viewBox="0 0 28 25">
  <defs>
    <style>

      .cls-2 {
        fill: #666666;
        filter: url(#color-overlay-1);
      }
    </style>

    <filter id="color-overlay-1" filterUnits="userSpaceOnUse">
      <feFlood flood-color="#9ec462" flood-opacity="1"/>
      <feComposite operator="in" in2="SourceGraphic"/>
      <feBlend mode="normal" in2="SourceGraphic" result="colorOverlay"/>
    </filter>
  </defs>
  <path d="M27.239,23.207 C27.239,23.207 14.114,24.992 14.114,24.992 C14.076,24.997 14.037,25.000 13.999,25.000 C13.960,25.000 13.921,24.997 13.883,24.992 C13.883,24.992 0.758,23.207 0.758,23.207 C0.323,23.147 -0.001,22.769 -0.001,22.322 C-0.001,22.322 -0.001,0.893 -0.001,0.893 C-0.001,0.636 0.108,0.391 0.297,0.221 C0.487,0.051 0.738,-0.027 0.989,0.008 C0.989,0.008 13.999,1.778 13.999,1.778 C13.999,1.778 27.008,0.008 27.008,0.008 C27.260,-0.025 27.510,0.051 27.700,0.221 C27.889,0.391 27.998,0.636 27.998,0.893 C27.998,0.893 27.998,22.322 27.998,22.322 C27.998,22.769 27.674,23.147 27.239,23.207 ZM13.124,3.460 C13.124,3.460 1.749,1.913 1.749,1.913 C1.749,1.913 1.749,21.540 1.749,21.540 C1.749,21.540 13.124,23.087 13.124,23.087 C13.124,23.087 13.124,3.460 13.124,3.460 ZM26.248,1.913 C26.248,1.913 14.874,3.460 14.874,3.460 C14.874,3.460 14.874,23.087 14.874,23.087 C14.874,23.087 26.248,21.540 26.248,21.540 C26.248,21.540 26.248,1.913 26.248,1.913 ZM16.515,5.364 C16.515,5.364 23.515,4.471 23.515,4.471 C23.989,4.409 24.432,4.757 24.492,5.246 C24.551,5.736 24.211,6.182 23.732,6.243 C23.732,6.243 16.732,7.136 16.732,7.136 C16.695,7.141 16.659,7.143 16.622,7.143 C16.188,7.143 15.811,6.813 15.755,6.361 C15.696,5.872 16.036,5.425 16.515,5.364 ZM16.515,9.828 C16.515,9.828 23.515,8.936 23.515,8.936 C23.989,8.872 24.432,9.221 24.492,9.711 C24.551,10.200 24.211,10.646 23.732,10.707 C23.732,10.707 16.732,11.600 16.732,11.600 C16.695,11.605 16.659,11.607 16.622,11.607 C16.188,11.607 15.811,11.277 15.755,10.825 C15.696,10.336 16.036,9.890 16.515,9.828 ZM16.515,14.293 C16.515,14.293 23.515,13.400 23.515,13.400 C23.989,13.337 24.432,13.686 24.492,14.175 C24.551,14.664 24.211,15.111 23.732,15.172 C23.732,15.172 16.732,16.065 16.732,16.065 C16.695,16.069 16.659,16.072 16.622,16.072 C16.188,16.072 15.811,15.741 15.755,15.289 C15.696,14.800 16.036,14.354 16.515,14.293 ZM16.515,18.757 C16.515,18.757 23.515,17.864 23.515,17.864 C23.989,17.802 24.432,18.150 24.492,18.639 C24.551,19.129 24.211,19.575 23.732,19.636 C23.732,19.636 16.732,20.529 16.732,20.529 C16.695,20.534 16.659,20.536 16.622,20.536 C16.188,20.536 15.811,20.205 15.755,19.754 C15.696,19.264 16.036,18.818 16.515,18.757 ZM4.482,4.471 C4.482,4.471 11.482,5.364 11.482,5.364 C11.961,5.425 12.302,5.872 12.242,6.361 C12.187,6.813 11.809,7.143 11.375,7.143 C11.339,7.143 11.302,7.141 11.265,7.136 C11.265,7.136 4.265,6.243 4.265,6.243 C3.786,6.182 3.446,5.736 3.506,5.246 C3.565,4.757 4.004,4.409 4.482,4.471 ZM4.482,8.936 C4.482,8.936 11.482,9.828 11.482,9.828 C11.961,9.890 12.302,10.336 12.242,10.825 C12.187,11.277 11.809,11.607 11.375,11.607 C11.339,11.607 11.302,11.605 11.265,11.600 C11.265,11.600 4.265,10.707 4.265,10.707 C3.786,10.646 3.446,10.200 3.506,9.711 C3.565,9.221 4.004,8.872 4.482,8.936 ZM4.482,13.400 C4.482,13.400 11.482,14.293 11.482,14.293 C11.961,14.354 12.302,14.800 12.242,15.289 C12.187,15.741 11.809,16.072 11.375,16.072 C11.339,16.072 11.302,16.069 11.265,16.065 C11.265,16.065 4.265,15.172 4.265,15.172 C3.786,15.111 3.446,14.664 3.506,14.175 C3.565,13.686 4.004,13.337 4.482,13.400 ZM4.482,17.864 C4.482,17.864 11.482,18.757 11.482,18.757 C11.961,18.818 12.302,19.264 12.242,19.754 C12.187,20.205 11.809,20.536 11.375,20.536 C11.339,20.536 11.302,20.534 11.265,20.529 C11.265,20.529 4.265,19.636 4.265,19.636 C3.786,19.575 3.446,19.129 3.506,18.639 C3.565,18.150 4.004,17.802 4.482,17.864 Z" id="path-1" class="cls-2" fill-rule="evenodd"/>
</svg>
