<svg xmlns="http://www.w3.org/2000/svg" xmlns:xlink="http://www.w3.org/1999/xlink" preserveAspectRatio="xMidYMid" width="22" height="30" viewBox="0 0 22 30">
  <defs>
    <style>

      .cls-2 {
        fill: #666666;
        filter: url(#color-overlay-1);
      }
    </style>

    <filter id="color-overlay-1" filterUnits="userSpaceOnUse">
      <feFlood flood-color="#6278b9" flood-opacity="1"/>
      <feComposite operator="in" in2="SourceGraphic"/>
      <feBlend mode="normal" in2="SourceGraphic" result="colorOverlay"/>
    </filter>
  </defs>
  <path d="M11.700,29.683 C11.519,29.885 11.258,30.000 10.983,30.000 C10.693,29.994 10.445,29.883 10.264,29.680 C9.844,29.212 -0.001,18.113 -0.001,10.798 C-0.001,4.844 4.934,0.000 10.999,0.000 C17.037,0.000 21.972,4.842 21.999,10.793 C22.033,18.113 12.122,29.214 11.700,29.683 ZM10.999,1.875 C5.989,1.875 1.912,5.878 1.912,10.798 C1.912,16.346 8.726,24.919 10.985,27.609 C13.256,24.922 20.112,16.344 20.086,10.802 C20.063,5.880 15.987,1.875 10.999,1.875 ZM7.173,10.781 C7.173,8.714 8.890,7.031 10.999,7.031 C13.109,7.031 14.825,8.714 14.825,10.781 C14.825,12.849 13.109,14.531 10.999,14.531 C8.890,14.531 7.173,12.849 7.173,10.781 ZM12.912,10.781 C12.912,9.748 12.054,8.906 10.999,8.906 C9.944,8.906 9.086,9.748 9.086,10.781 C9.086,11.815 9.944,12.656 10.999,12.656 C12.054,12.656 12.912,11.815 12.912,10.781 Z" id="path-1" class="cls-2" fill-rule="evenodd"/>
</svg>
