<svg class="svg-icon" style="width: 1em; height: 1em;vertical-align: middle;fill: currentColor;overflow: hidden;" viewBox="0 0 1024 1024" version="1.1" xmlns="http://www.w3.org/2000/svg"><path d="M512 725.333333a85.333333 85.333333 0 0 1-85.333333-85.333333c0-47.36 37.973333-85.333333 85.333333-85.333333a85.333333 85.333333 0 0 1 85.333333 85.333333 85.333333 85.333333 0 0 1-85.333333 85.333333m256 128V426.666667H256v426.666666h512m0-512a85.333333 85.333333 0 0 1 85.333333 85.333334v426.666666a85.333333 85.333333 0 0 1-85.333333 85.333334H256a85.333333 85.333333 0 0 1-85.333333-85.333334V426.666667c0-47.36 37.973333-85.333333 85.333333-85.333334h42.666667V256a213.333333 213.333333 0 0 1 213.333333-213.333333 213.333333 213.333333 0 0 1 213.333333 213.333333v85.333333h42.666667m-256-213.333333a128 128 0 0 0-128 128v85.333333h256V256a128 128 0 0 0-128-128z" fill="" /></svg>