<svg class="svg-icon" style="width: 1em; height: 1em;vertical-align: middle;fill:#0175BC;overflow: hidden;" viewBox="0 0 1024 1024" version="1.1" xmlns="http://www.w3.org/2000/svg"><path d="M512 725.333333c47.146667 0 85.333333-38.186667 85.333333-85.333333s-38.186667-85.333333-85.333333-85.333333-85.333333 38.186667-85.333333 85.333333 38.186667 85.333333 85.333333 85.333333zM768 341.333333l-42.666667 0 0-85.333333c0-117.76-95.573333-213.333333-213.333333-213.333333s-213.333333 95.573333-213.333333 213.333333l81.066667 0c0-72.96 59.306667-132.266667 132.266667-132.266667s132.266667 59.306667 132.266667 132.266667l0 85.333333-388.266667 0c-47.146667 0-85.333333 38.186667-85.333333 85.333333l0 426.666667c0 47.146667 38.186667 85.333333 85.333333 85.333333l512 0c47.146667 0 85.333333-38.186667 85.333333-85.333333l0-426.666667c0-47.146667-38.186667-85.333333-85.333333-85.333333zM768 853.333333l-512 0 0-426.666667 512 0 0 426.666667z"  /></svg>