<svg xmlns="http://www.w3.org/2000/svg" xmlns:xlink="http://www.w3.org/1999/xlink" preserveAspectRatio="xMidYMid" width="27" height="27" viewBox="0 0 27 27">
  <defs>
    <style>

      .cls-2 {
        fill: #666666;
        filter: url(#color-overlay-1);
      }
    </style>

    <filter id="color-overlay-1" filterUnits="userSpaceOnUse">
      <feFlood flood-color="#47ad98" flood-opacity="1"/>
      <feComposite operator="in" in2="SourceGraphic"/>
      <feBlend mode="normal" in2="SourceGraphic" result="colorOverlay"/>
    </filter>
  </defs>
  <path d="M16.873,27.000 C16.873,27.000 21.935,27.000 21.935,27.000 C22.402,27.000 22.779,26.622 22.779,26.156 C22.779,26.156 22.779,14.338 22.779,14.338 C22.779,14.338 26.154,14.338 26.154,14.338 C26.495,14.338 26.803,14.132 26.933,13.817 C27.064,13.501 26.992,13.138 26.750,12.897 C26.750,12.897 14.094,0.234 14.094,0.234 C13.765,-0.096 13.231,-0.096 12.901,0.234 C12.901,0.234 0.245,12.897 0.245,12.897 C0.004,13.138 -0.068,13.501 0.062,13.817 C0.193,14.132 0.501,14.338 0.842,14.338 C0.842,14.338 4.217,14.338 4.217,14.338 C4.217,14.338 4.217,26.156 4.217,26.156 C4.217,26.622 4.595,27.000 5.060,27.000 C5.060,27.000 10.123,27.000 10.123,27.000 C10.589,27.000 10.967,26.622 10.967,26.156 C10.967,26.156 10.967,20.247 10.967,20.247 C10.967,20.247 16.029,20.247 16.029,20.247 C16.029,20.247 16.029,26.156 16.029,26.156 C16.029,26.622 16.407,27.000 16.873,27.000 ZM10.123,18.558 C9.657,18.558 9.279,18.936 9.279,19.403 C9.279,19.403 9.279,25.312 9.279,25.312 C9.279,25.312 5.904,25.312 5.904,25.312 C5.904,25.312 5.904,13.493 5.904,13.493 C5.904,13.027 5.527,12.649 5.060,12.649 C5.060,12.649 2.879,12.649 2.879,12.649 C2.879,12.649 13.498,2.025 13.498,2.025 C13.498,2.025 24.117,12.649 24.117,12.649 C24.117,12.649 21.935,12.649 21.935,12.649 C21.470,12.649 21.091,13.027 21.091,13.493 C21.091,13.493 21.091,25.312 21.091,25.312 C21.091,25.312 17.717,25.312 17.717,25.312 C17.717,25.312 17.717,19.403 17.717,19.403 C17.717,18.936 17.339,18.558 16.873,18.558 C16.873,18.558 10.123,18.558 10.123,18.558 Z" id="path-1" class="cls-2" fill-rule="evenodd"/>
</svg>
