<svg xmlns="http://www.w3.org/2000/svg" xmlns:xlink="http://www.w3.org/1999/xlink" preserveAspectRatio="xMidYMid" width="33" height="27" viewBox="0 0 33 27">
  <defs>
    <style>

      .cls-2 {
        fill: #666666;
        filter: url(#color-overlay-1);
      }
    </style>

    <filter id="color-overlay-1" filterUnits="userSpaceOnUse">
      <feFlood flood-color="#cea764" flood-opacity="1"/>
      <feComposite operator="in" in2="SourceGraphic"/>
      <feBlend mode="normal" in2="SourceGraphic" result="colorOverlay"/>
    </filter>
  </defs>
  <path d="M32.950,22.098 C32.940,22.133 32.932,22.168 32.919,22.202 C32.904,22.237 32.883,22.270 32.865,22.303 C32.851,22.329 32.840,22.356 32.824,22.381 C32.786,22.438 32.742,22.492 32.695,22.540 C32.695,22.540 28.570,26.696 28.570,26.696 C28.369,26.899 28.105,27.000 27.841,27.000 C27.577,27.000 27.313,26.899 27.112,26.696 C26.709,26.290 26.709,25.632 27.112,25.226 C27.112,25.226 29.476,22.844 29.476,22.844 C29.476,22.844 24.320,22.844 24.320,22.844 C24.320,22.844 18.862,17.344 18.862,17.344 C18.459,16.938 18.459,16.280 18.862,15.875 C19.265,15.469 19.917,15.469 20.320,15.875 C20.320,15.875 25.174,20.766 25.174,20.766 C25.174,20.766 29.476,20.766 29.476,20.766 C29.476,20.766 27.112,18.383 27.112,18.383 C26.709,17.977 26.709,17.320 27.112,16.914 C27.515,16.508 28.167,16.508 28.570,16.914 C28.570,16.914 32.695,21.070 32.695,21.070 C32.742,21.118 32.786,21.172 32.824,21.229 C32.840,21.253 32.851,21.280 32.865,21.306 C32.883,21.339 32.904,21.372 32.919,21.407 C32.932,21.441 32.940,21.476 32.950,21.511 C32.959,21.541 32.970,21.570 32.977,21.601 C33.003,21.736 33.003,21.874 32.977,22.008 C32.970,22.039 32.959,22.068 32.950,22.098 ZM32.919,5.577 C32.904,5.612 32.883,5.645 32.865,5.678 C32.851,5.704 32.840,5.731 32.824,5.755 C32.786,5.813 32.742,5.866 32.695,5.914 C32.695,5.914 28.570,10.070 28.570,10.070 C28.369,10.273 28.105,10.375 27.841,10.375 C27.577,10.375 27.313,10.273 27.112,10.070 C26.709,9.664 26.709,9.007 27.112,8.601 C27.112,8.601 29.476,6.218 29.476,6.218 C29.476,6.218 25.174,6.218 25.174,6.218 C25.174,6.218 8.674,22.844 8.674,22.844 C8.674,22.844 1.029,22.844 1.029,22.844 C0.459,22.844 -0.002,22.378 -0.002,21.805 C-0.002,21.231 0.459,20.766 1.029,20.766 C1.029,20.766 7.821,20.766 7.821,20.766 C7.821,20.766 24.320,4.140 24.320,4.140 C24.320,4.140 29.476,4.140 29.476,4.140 C29.476,4.140 27.112,1.758 27.112,1.758 C26.709,1.352 26.709,0.694 27.112,0.288 C27.515,-0.118 28.167,-0.118 28.570,0.288 C28.570,0.288 32.695,4.444 32.695,4.444 C32.742,4.492 32.786,4.546 32.824,4.603 C32.840,4.628 32.851,4.655 32.865,4.681 C32.883,4.714 32.904,4.747 32.919,4.782 C32.932,4.816 32.940,4.851 32.950,4.886 C32.959,4.916 32.970,4.945 32.977,4.976 C33.003,5.110 33.003,5.248 32.977,5.383 C32.970,5.414 32.959,5.443 32.950,5.473 C32.940,5.508 32.932,5.543 32.919,5.577 ZM13.404,11.414 C13.140,11.414 12.876,11.312 12.674,11.109 C12.674,11.109 7.821,6.218 7.821,6.218 C7.821,6.218 1.029,6.218 1.029,6.218 C0.459,6.218 -0.002,5.753 -0.002,5.179 C-0.002,4.606 0.459,4.140 1.029,4.140 C1.029,4.140 8.674,4.140 8.674,4.140 C8.674,4.140 14.133,9.640 14.133,9.640 C14.536,10.046 14.536,10.703 14.133,11.109 C13.931,11.312 13.668,11.414 13.404,11.414 Z" id="path-1" class="cls-2" fill-rule="evenodd"/>
</svg>
