<?xml version="1.0" encoding="utf-8"?>
<!-- Generator: Adobe Illustrator 16.0.0, SVG Export Plug-In . SVG Version: 6.00 Build 0)  -->
<!DOCTYPE svg PUBLIC "-//W3C//DTD SVG 1.0//EN" "http://www.w3.org/TR/2001/REC-SVG-20010904/DTD/svg10.dtd">
<svg version="1.0" id="Isolation_Mode" xmlns="http://www.w3.org/2000/svg" xmlns:xlink="http://www.w3.org/1999/xlink" x="0px"
	 y="0px" width="120px" height="120px" viewBox="0 0 120 120" enable-background="new 0 0 120 120" xml:space="preserve">
<polyline fill="none" stroke="#000000" stroke-width="5" stroke-linecap="round" stroke-linejoin="round" stroke-miterlimit="10" points="
	100.205,66.985 100.205,89.109 34.687,89.109 34.687,31.318 65.78,31.318 "/>
<polyline fill="none" stroke="#000000" stroke-width="5" stroke-linecap="round" stroke-linejoin="round" stroke-miterlimit="10" points="
	85.288,100.346 21.242,100.346 21.242,42.554 "/>
<path fill="none" stroke="#000000" stroke-width="5" stroke-linecap="round" stroke-linejoin="round" stroke-miterlimit="10" d="
	M77.556,52.576c0,5.246,4.864,9.504,10.867,9.504l0,0c6.003,0,10.869-4.258,10.869-9.504V29.85c0-5.252-4.866-9.505-10.869-9.505
	l0,0c-6.003,0-10.867,4.253-10.867,9.505v2.032v5.449c0,3.259,2.645,5.904,5.904,5.904l0,0c3.263,0,5.906-2.645,5.906-5.904v-5.449"
	/>
<line fill="none" stroke="#000000" stroke-width="5" stroke-linecap="round" stroke-linejoin="round" stroke-miterlimit="10" x1="44.676" y1="75.501" x2="87.699" y2="75.501"/>
</svg>
