<svg xmlns="http://www.w3.org/2000/svg" xmlns:xlink="http://www.w3.org/1999/xlink" preserveAspectRatio="xMidYMid" width="31" height="27" viewBox="0 0 31 27">
  <defs>
    <style>

      .cls-2 {
        fill: #666666;
        filter: url(#color-overlay-1);
      }
    </style>

    <filter id="color-overlay-1" filterUnits="userSpaceOnUse">
      <feFlood flood-color="#facd44" flood-opacity="1"/>
      <feComposite operator="in" in2="SourceGraphic"/>
      <feBlend mode="normal" in2="SourceGraphic" result="colorOverlay"/>
    </filter>
  </defs>
  <path d="M30.815,26.599 C30.634,26.851 30.341,27.000 30.029,27.000 C30.029,27.000 0.967,27.000 0.967,27.000 C0.656,27.000 0.363,26.851 0.182,26.599 C-0.000,26.348 -0.050,26.025 0.048,25.731 C0.048,25.731 1.986,19.945 1.986,19.945 C2.087,19.643 2.331,19.411 2.639,19.323 C2.639,19.323 9.420,17.395 9.420,17.395 C9.653,17.328 9.902,17.351 10.119,17.459 C10.119,17.459 15.498,20.136 15.498,20.136 C15.498,20.136 20.878,17.459 20.878,17.459 C21.095,17.351 21.344,17.328 21.577,17.395 C21.577,17.395 28.358,19.323 28.358,19.323 C28.666,19.411 28.910,19.643 29.011,19.945 C29.011,19.945 30.949,25.731 30.949,25.731 C31.047,26.025 30.997,26.348 30.815,26.599 ZM27.335,21.037 C27.335,21.037 21.407,19.352 21.407,19.352 C21.407,19.352 15.932,22.077 15.932,22.077 C15.659,22.213 15.338,22.213 15.065,22.077 C15.065,22.077 9.590,19.352 9.590,19.352 C9.590,19.352 3.662,21.037 3.662,21.037 C3.662,21.037 2.311,25.072 2.311,25.072 C2.311,25.072 28.686,25.072 28.686,25.072 C28.686,25.072 27.335,21.037 27.335,21.037 ZM15.498,18.322 C11.492,18.322 8.233,14.212 8.233,9.161 C8.233,4.110 11.492,0.000 15.498,0.000 C19.505,0.000 22.764,4.110 22.764,9.161 C22.764,14.212 19.505,18.322 15.498,18.322 ZM15.498,1.929 C12.610,1.929 10.170,5.241 10.170,9.161 C10.170,13.081 12.610,16.393 15.498,16.393 C18.387,16.393 20.826,13.081 20.826,9.161 C20.826,5.241 18.387,1.929 15.498,1.929 Z" id="path-1" class="cls-2" fill-rule="evenodd"/>
</svg>
