<?xml version="1.0" encoding="utf-8"?>
<!-- Generator: Adobe Illustrator 16.0.0, SVG Export Plug-In . SVG Version: 6.00 Build 0)  -->
<!DOCTYPE svg PUBLIC "-//W3C//DTD SVG 1.1//EN" "http://www.w3.org/Graphics/SVG/1.1/DTD/svg11.dtd">
<svg version="1.1" id="Layer_1" xmlns="http://www.w3.org/2000/svg" xmlns:xlink="http://www.w3.org/1999/xlink" x="0px" y="0px"
	 width="24px" height="25.5px" viewBox="0 0 24 25.5" enable-background="new 0 0 24 25.5" xml:space="preserve">
<g id="ppt_icon" transform="translate(0 0.75)">
	<path id="XMLID_1_" fill="#FFFFFF" stroke="#D24727" stroke-width="1.5" stroke-miterlimit="10" d="M19.471,24H4.528
		c-0.568,0.046-1.066-0.378-1.112-0.947c-0.003-0.041-0.004-0.082-0.002-0.124V1.071C3.429,0.469,3.926-0.008,4.528,0h14.83
		c0.603-0.008,1.1,0.469,1.115,1.071v21.858c0.069,0.519-0.295,0.996-0.814,1.065C19.596,24.002,19.533,24.004,19.471,24z"/>
	<rect id="XMLID_28_" y="9.451" fill="#D24727" width="24" height="10.808"/>
	<g id="XMLID_3_" transform="translate(3.521 11.35)">
		<path id="XMLID_4_" fill="#FFFFFF" d="M1.593,5.233v2.729H0V0h2.5c1.82,0,2.73,0.8,2.73,2.5c0.052,0.734-0.244,1.451-0.8,1.935
			c-0.57,0.495-1.293,0.777-2.048,0.8L1.593,5.233z M1.593,1.479v2.5h0.683c0.595,0.096,1.155-0.309,1.251-0.903
			c0.019-0.115,0.019-0.231,0-0.346C3.593,2.105,3.14,1.545,2.515,1.479c-0.08-0.009-0.159-0.009-0.239,0H1.593z"/>
		<path id="XMLID_7_" fill="#FFFFFF" d="M11.462,3.045c-0.087,0.534-0.358,1.027-0.775,1.39c-0.569,0.495-1.294,0.777-2.048,0.8
			L7.85,5.233v2.729H6.257V0h2.5c1.82,0,2.73,0.8,2.73,2.5C11.5,2.683,11.492,2.866,11.462,3.045 M7.85,1.479v2.5h0.683
			c0.594,0.096,1.155-0.309,1.25-0.903c0.02-0.115,0.02-0.232,0-0.348C9.85,2.103,9.397,1.543,8.771,1.477
			c-0.079-0.009-0.159-0.009-0.238,0H7.85V1.479z"/>
		<path id="XMLID_10_" fill="#FFFFFF" d="M17.521,1.479h-2.048v6.485h-1.594V1.479h-2.047V0h5.688V1.479z"/>
	</g>
</g>
</svg>
