<svg xmlns="http://www.w3.org/2000/svg" xmlns:xlink="http://www.w3.org/1999/xlink" preserveAspectRatio="xMidYMid" width="22" height="28" viewBox="0 0 22 28">
  <defs>
    <style>

      .cls-2 {
        fill: #666666;
        filter: url(#color-overlay-1);
      }
    </style>

    <filter id="color-overlay-1" filterUnits="userSpaceOnUse">
      <feFlood flood-color="#e4855c" flood-opacity="1"/>
      <feComposite operator="in" in2="SourceGraphic"/>
      <feBlend mode="normal" in2="SourceGraphic" result="colorOverlay"/>
    </filter>
  </defs>
  <path d="M21.154,28.000 C21.154,28.000 0.846,28.000 0.846,28.000 C0.379,28.000 0.000,27.608 0.000,27.125 C0.000,27.125 0.000,14.875 0.000,14.875 C0.000,14.392 0.379,14.000 0.846,14.000 C0.846,14.000 3.385,14.000 3.385,14.000 C3.385,14.000 3.385,7.875 3.385,7.875 C3.385,3.533 6.801,0.000 11.000,0.000 C15.199,0.000 18.615,3.533 18.615,7.875 C18.615,7.875 18.615,14.000 18.615,14.000 C18.615,14.000 21.154,14.000 21.154,14.000 C21.621,14.000 22.000,14.392 22.000,14.875 C22.000,14.875 22.000,27.125 22.000,27.125 C22.000,27.608 21.621,28.000 21.154,28.000 ZM16.923,7.875 C16.923,4.498 14.266,1.750 11.000,1.750 C7.734,1.750 5.077,4.498 5.077,7.875 C5.077,7.875 5.077,14.000 5.077,14.000 C5.077,14.000 16.923,14.000 16.923,14.000 C16.923,14.000 16.923,7.875 16.923,7.875 ZM20.308,15.750 C20.308,15.750 1.693,15.750 1.693,15.750 C1.693,15.750 1.693,26.250 1.693,26.250 C1.693,26.250 20.308,26.250 20.308,26.250 C20.308,26.250 20.308,15.750 20.308,15.750 ZM11.000,17.500 C12.400,17.500 13.539,18.678 13.539,20.125 C13.539,21.265 12.830,22.236 11.846,22.597 C11.846,22.597 11.846,23.625 11.846,23.625 C11.846,24.108 11.467,24.500 11.000,24.500 C10.533,24.500 10.154,24.108 10.154,23.625 C10.154,23.625 10.154,22.597 10.154,22.597 C9.170,22.236 8.462,21.265 8.462,20.125 C8.462,18.678 9.600,17.500 11.000,17.500 ZM11.000,21.000 C11.467,21.000 11.846,20.608 11.846,20.125 C11.846,19.643 11.467,19.250 11.000,19.250 C10.534,19.250 10.154,19.643 10.154,20.125 C10.154,20.608 10.534,21.000 11.000,21.000 Z" id="path-1" class="cls-2" fill-rule="evenodd"/>
</svg>
