<svg xmlns="http://www.w3.org/2000/svg" xmlns:xlink="http://www.w3.org/1999/xlink" preserveAspectRatio="xMidYMid" width="14" height="14" viewBox="0 0 14 14">
  <defs>
    <style>

      .cls-2 {
        fill: #9a9a9a;
        filter: url(#color-overlay-1);
      }
    </style>

    <filter id="color-overlay-1" filterUnits="userSpaceOnUse">
      <feFlood flood-color="#404040" flood-opacity="1"/>
      <feComposite operator="in" in2="SourceGraphic"/>
      <feBlend mode="normal" in2="SourceGraphic" result="colorOverlay"/>
    </filter>
  </defs>
  <path d="M6.999,0.000 C5.130,0.000 3.372,0.728 2.050,2.050 C0.727,3.373 -0.001,5.130 -0.001,7.000 C-0.001,8.870 0.727,10.627 2.050,11.950 C3.372,13.272 5.130,14.000 6.999,14.000 C8.869,14.000 10.627,13.272 11.949,11.950 C13.271,10.627 14.000,8.870 14.000,7.000 C14.000,5.130 13.271,3.373 11.949,2.051 C10.627,0.728 8.869,0.000 6.999,0.000 ZM2.668,2.669 C2.994,2.344 3.351,2.060 3.731,1.820 C3.731,1.820 5.985,5.576 5.985,5.576 C5.906,5.632 5.832,5.693 5.762,5.763 C5.692,5.832 5.631,5.908 5.576,5.986 C5.576,5.986 1.819,3.732 1.819,3.732 C2.060,3.352 2.343,2.995 2.668,2.669 ZM7.618,7.619 C7.453,7.784 7.233,7.875 6.999,7.875 C6.766,7.875 6.546,7.784 6.381,7.619 C6.040,7.278 6.040,6.722 6.381,6.381 C6.546,6.216 6.766,6.125 6.999,6.125 C7.233,6.125 7.453,6.216 7.618,6.381 C7.959,6.722 7.959,7.278 7.618,7.619 ZM2.668,11.331 C1.511,10.174 0.874,8.636 0.874,7.000 C0.874,6.125 1.058,5.279 1.405,4.503 C1.405,4.503 5.260,6.817 5.260,6.817 C5.207,7.324 5.374,7.850 5.762,8.238 C6.093,8.568 6.532,8.750 6.999,8.750 C7.061,8.750 7.123,8.747 7.184,8.740 C7.184,8.740 9.496,12.595 9.496,12.595 C8.720,12.941 7.874,13.125 6.999,13.125 C5.363,13.125 3.825,12.488 2.668,11.331 ZM11.330,11.331 C11.005,11.657 10.648,11.940 10.268,12.180 C10.268,12.180 8.014,8.424 8.014,8.424 C8.092,8.368 8.167,8.307 8.237,8.238 C8.307,8.168 8.367,8.093 8.423,8.014 C8.423,8.014 12.180,10.268 12.180,10.268 C11.939,10.648 11.656,11.005 11.330,11.331 ZM12.594,9.497 C12.594,9.497 8.738,7.183 8.738,7.183 C8.791,6.676 8.625,6.150 8.237,5.762 C7.906,5.432 7.467,5.250 6.999,5.250 C6.937,5.250 6.876,5.254 6.816,5.260 C6.816,5.260 4.503,1.405 4.503,1.405 C5.278,1.059 6.124,0.875 6.999,0.875 C8.635,0.875 10.173,1.512 11.330,2.669 C12.487,3.826 13.125,5.364 13.125,7.000 C13.125,7.875 12.941,8.721 12.594,9.497 Z" id="path-1" class="cls-2" fill-rule="evenodd"/>
</svg>
