<svg xmlns="http://www.w3.org/2000/svg" xmlns:xlink="http://www.w3.org/1999/xlink" preserveAspectRatio="xMidYMid" width="14" height="14" viewBox="0 0 14 14">
  <defs>
    <style>

      .cls-2 {
        fill: #9a9a9a;
        filter: url(#color-overlay-1);
      }
    </style>

    <filter id="color-overlay-1" filterUnits="userSpaceOnUse">
      <feFlood flood-color="#0175bc" flood-opacity="1"/>
      <feComposite operator="in" in2="SourceGraphic"/>
      <feBlend mode="normal" in2="SourceGraphic" result="colorOverlay"/>
    </filter>
  </defs>
  <path d="M6.999,0.002 C5.130,0.002 3.372,0.732 2.050,2.057 C0.727,3.382 -0.001,5.143 -0.001,7.017 C-0.001,8.890 0.727,10.652 2.050,11.976 C3.372,13.302 5.130,14.031 6.999,14.031 C8.869,14.031 10.627,13.302 11.949,11.977 C13.271,10.652 14.000,8.890 14.000,7.017 C14.000,5.143 13.271,3.382 11.949,2.057 C10.627,0.732 8.869,0.002 6.999,0.002 ZM2.668,2.677 C2.994,2.350 3.351,2.067 3.731,1.826 C3.731,1.826 5.985,5.590 5.985,5.590 C5.906,5.646 5.832,5.707 5.762,5.777 C5.692,5.847 5.631,5.922 5.576,6.000 C5.576,6.000 1.819,3.741 1.819,3.741 C2.060,3.361 2.343,3.003 2.668,2.677 ZM7.618,7.637 C7.453,7.802 7.233,7.893 6.999,7.893 C6.766,7.893 6.546,7.802 6.381,7.637 C6.040,7.295 6.040,6.738 6.381,6.397 C6.546,6.231 6.766,6.140 6.999,6.140 C7.233,6.140 7.453,6.231 7.618,6.397 C7.959,6.738 7.959,7.295 7.618,7.637 ZM2.668,11.356 C1.511,10.197 0.874,8.656 0.874,7.017 C0.874,6.140 1.058,5.292 1.405,4.515 C1.405,4.515 5.260,6.833 5.260,6.833 C5.207,7.341 5.374,7.868 5.762,8.257 C6.093,8.588 6.532,8.770 6.999,8.770 C7.061,8.770 7.123,8.767 7.183,8.760 C7.183,8.760 9.496,12.623 9.496,12.623 C8.720,12.970 7.874,13.154 6.999,13.154 C5.363,13.154 3.825,12.516 2.668,11.356 ZM11.330,11.357 C11.005,11.683 10.648,11.967 10.268,12.208 C10.268,12.208 8.014,8.444 8.014,8.444 C8.092,8.388 8.167,8.326 8.237,8.257 C8.307,8.187 8.367,8.111 8.423,8.033 C8.423,8.033 12.180,10.292 12.180,10.292 C11.939,10.673 11.656,11.030 11.330,11.357 ZM12.594,9.518 C12.594,9.518 8.738,7.200 8.738,7.200 C8.791,6.692 8.625,6.165 8.237,5.776 C7.906,5.445 7.467,5.263 6.999,5.263 C6.937,5.263 6.876,5.267 6.816,5.273 C6.816,5.273 4.503,1.410 4.503,1.410 C5.278,1.063 6.124,0.879 6.999,0.879 C8.635,0.879 10.173,1.517 11.330,2.677 C12.487,3.836 13.125,5.377 13.125,7.017 C13.125,7.893 12.941,8.741 12.594,9.518 Z" id="path-1" class="cls-2" fill-rule="evenodd"/>
</svg>
