<?xml version="1.0" encoding="utf-8"?>
<!-- Generator: Adobe Illustrator 16.0.0, SVG Export Plug-In . SVG Version: 6.00 Build 0)  -->
<!DOCTYPE svg PUBLIC "-//W3C//DTD SVG 1.1//EN" "http://www.w3.org/Graphics/SVG/1.1/DTD/svg11.dtd">
<svg version="1.1" id="Layer_1" xmlns="http://www.w3.org/2000/svg" xmlns:xlink="http://www.w3.org/1999/xlink" x="0px" y="0px"
	 width="24px" height="25.5px" viewBox="0 0 24 25.5" enable-background="new 0 0 24 25.5" xml:space="preserve">
<path id="XMLID_1_" fill="#FFFFFF" stroke="#1F5FA0" stroke-width="1.5" stroke-miterlimit="10" d="M19.471,24.75H4.528
	c-0.568,0.046-1.066-0.378-1.112-0.947c-0.003-0.041-0.004-0.082-0.002-0.123V1.821C3.429,1.219,3.926,0.742,4.528,0.75h14.83
	c0.604-0.008,1.101,0.469,1.115,1.071V23.68c0.069,0.519-0.295,0.995-0.813,1.064C19.596,24.752,19.533,24.754,19.471,24.75z"/>
<rect id="XMLID_28_" y="10.262" fill="#1F5FA0" width="24" height="10.808"/>
<g>
	<path fill="#FFFFFF" d="M3.234,13.159H1.063v-1.535h6.213v1.535H5.069v6.548H3.234V13.159z"/>
	<path fill="#FFFFFF" d="M10.085,11.624v8.083H8.25v-8.083H10.085z"/>
	<path fill="#FFFFFF" d="M11.671,11.624h4.941v1.499h-3.107v1.848h2.902v1.486h-2.902v3.25h-1.834V11.624z"/>
	<path fill="#FFFFFF" d="M17.995,11.624h4.941v1.499h-3.107v1.848h2.902v1.486h-2.902v3.25h-1.834V11.624z"/>
</g>
</svg>
