<svg id="Layer_1" data-name="Layer 1" xmlns="http://www.w3.org/2000/svg" viewBox="0 0 24 24"><defs><style>.cls-1{fill:none;}.cls-2{fill:#f2c22f;}</style></defs><title>08-Message</title><g id="Frames-24px"><rect class="cls-1" width="24" height="24"/></g><g id="Outline"><path class="cls-2" d="M20,11H4a2,2,0,0,0-2,2v9a2,2,0,0,0,2,2H20a2,2,0,0,0,2-2V13A2,2,0,0,0,20,11Zm-1.89,2L12,16.82,5.89,13ZM4,22V14.18l7.47,4.67a1,1,0,0,0,1.06,0L20,14.18V22Z" transform="translate(0 0)"/><path class="cls-2" d="M11,4.83v4a.17.17,0,0,0,.17.17h1.66A.17.17,0,0,0,13,8.83v-4a.17.17,0,0,1,.29-.12l1.88,1.88a.17.17,0,0,0,.24,0l1.17-1.17a.17.17,0,0,0,0-.24L12.12.71a.17.17,0,0,0-.24,0L7.41,5.17a.17.17,0,0,0,0,.24L8.59,6.59a.17.17,0,0,0,.24,0l1.88-1.88A.17.17,0,0,1,11,4.83Z" transform="translate(0 0)"/></g></svg>