<svg xmlns="http://www.w3.org/2000/svg" xmlns:xlink="http://www.w3.org/1999/xlink" preserveAspectRatio="xMidYMid" width="20" height="12" viewBox="0 0 20 12">
  <defs>
    <style>

      .cls-2 {
        fill: #687ba5;
      }
    </style>
  </defs>
  <path d="M17.693,6.182 C17.404,2.600 14.225,0.000 10.625,0.000 C7.430,0.000 4.643,2.437 3.847,5.409 C1.779,5.409 0.000,6.786 0.000,8.886 C0.000,10.986 1.933,12.000 4.000,12.000 C4.000,12.000 8.000,12.000 8.000,12.000 C8.000,12.000 9.310,12.000 9.310,12.000 C9.310,12.000 9.310,6.979 9.310,6.979 C9.310,6.979 7.729,8.554 7.729,8.554 C7.460,8.822 7.023,8.822 6.754,8.554 C6.484,8.286 6.484,7.851 6.754,7.582 C6.754,7.582 9.512,4.834 9.512,4.834 C9.782,4.566 10.218,4.566 10.488,4.834 C10.488,4.834 13.246,7.582 13.246,7.582 C13.516,7.851 13.516,8.286 13.246,8.554 C13.111,8.688 12.935,8.755 12.759,8.755 C12.582,8.755 12.406,8.688 12.271,8.554 C12.271,8.554 10.690,6.979 10.690,6.979 C10.690,6.979 10.690,12.000 10.690,12.000 C10.690,12.000 12.000,12.000 12.000,12.000 C12.000,12.000 17.001,12.000 17.001,12.000 C18.724,12.000 20.000,11.271 20.000,9.521 C20.000,7.980 19.129,6.468 17.693,6.182 Z" id="path-1" class="cls-2" fill-rule="evenodd"/>
</svg>
