<?xml version="1.0" encoding="utf-8"?>
<!-- Generator: Adobe Illustrator 16.0.0, SVG Export Plug-In . SVG Version: 6.00 Build 0)  -->
<!DOCTYPE svg PUBLIC "-//W3C//DTD SVG 1.1//EN" "http://www.w3.org/Graphics/SVG/1.1/DTD/svg11.dtd">
<svg version="1.1" id="Layer_1" xmlns="http://www.w3.org/2000/svg" xmlns:xlink="http://www.w3.org/1999/xlink" x="0px" y="0px"
	 width="24px" height="25.334px" viewBox="0 0 24 25.334" enable-background="new 0 0 24 25.334" xml:space="preserve">
<g id="Group_1" transform="translate(-763 -264.25)">
	<path id="XMLID_1_" fill="#FFFFFF" stroke="#E2A20E" stroke-width="1.5" stroke-miterlimit="10" d="M782.512,288.834h-15.024
		c-0.568,0.049-1.069-0.372-1.118-0.94c-0.003-0.041-0.004-0.082-0.003-0.123v-21.707c0.02-0.602,0.519-1.076,1.121-1.064H782.4
		c0.602-0.012,1.102,0.462,1.121,1.064v21.707c0.065,0.519-0.301,0.992-0.82,1.059C782.639,288.837,782.575,288.839,782.512,288.834
		z"/>
	<g id="Group_83" transform="translate(763 267.649)">
		<rect id="XMLID_28_" y="0" fill="#E2A20E" width="24" height="10.661"/>
		<path id="Path_28" fill="#FFFFFF" d="M10.424,9.351H4.22v-1l3.948-5.29H4.5v-1.41h5.913v0.972L6.551,7.944h3.873V9.351z
			 M13.292,9.351h-1.735v-7.7h1.735V9.351z M16.777,6.698v2.653h-1.734v-7.7h2.719c1.939,0,2.91,0.818,2.91,2.455
			c0.023,0.721-0.283,1.412-0.835,1.877c-0.632,0.503-1.425,0.759-2.231,0.717L16.777,6.698z M16.777,2.981v2.4h0.683
			c0.924,0,1.386-0.405,1.386-1.214c0-0.792-0.462-1.187-1.386-1.187L16.777,2.981z"/>
	</g>
	<g id="Group_84" transform="translate(775.5 277.425) rotate(45)">
		
			<line id="Line_66" fill="none" stroke="#CA2128" stroke-width="1.5" stroke-linecap="round" x1="0" y1="4.092" x2="8.185" y2="4.092"/>
		
			<line id="Line_67" fill="none" stroke="#CA2128" stroke-width="1.5" stroke-linecap="round" x1="4.092" y1="0" x2="4.092" y2="8.185"/>
	</g>
</g>
</svg>
