<?xml version="1.0" encoding="utf-8"?>
<!-- Generator: Adobe Illustrator 16.0.0, SVG Export Plug-In . SVG Version: 6.00 Build 0)  -->
<!DOCTYPE svg PUBLIC "-//W3C//DTD SVG 1.0//EN" "http://www.w3.org/TR/2001/REC-SVG-20010904/DTD/svg10.dtd">
<svg version="1.0" id="Layer_1" xmlns="http://www.w3.org/2000/svg" xmlns:xlink="http://www.w3.org/1999/xlink" x="0px" y="0px"
	 width="26px" height="26px" viewBox="0 0 26 26" enable-background="new 0 0 26 26" xml:space="preserve">
<g>
	<path fill="#FFFFFF" d="M13,24C6.935,24,2,19.065,2,13S6.935,2,13,2s11,4.935,11,11S19.065,24,13,24z"/>
	<path d="M13,3c5.514,0,10,4.486,10,10c0,5.514-4.486,10-10,10C7.486,23,3,18.514,3,13C3,7.486,7.486,3,13,3 M13,1
		C6.374,1,1,6.374,1,13c0,6.628,5.374,12,12,12c6.628,0,12-5.372,12-12C25,6.374,19.628,1,13,1L13,1z"/>
</g>
<circle fill="#010202" cx="13" cy="13" r="4"/>
</svg>
