<?xml version="1.0" encoding="utf-8"?>
<!-- Generator: Adobe Illustrator 16.0.0, SVG Export Plug-In . SVG Version: 6.00 Build 0)  -->
<!DOCTYPE svg PUBLIC "-//W3C//DTD SVG 1.0//EN" "http://www.w3.org/TR/2001/REC-SVG-20010904/DTD/svg10.dtd">
<svg version="1.0" id="Layer_1" xmlns="http://www.w3.org/2000/svg" xmlns:xlink="http://www.w3.org/1999/xlink" x="0px" y="0px"
	 width="150px" height="56px" viewBox="0 0 150 56" enable-background="new 0 0 150 56" xml:space="preserve">
<g>
	<path fill="#FFFFFF" d="M18.944,47.247c-0.203,0-0.406-0.053-0.587-0.159L1.579,37.292C1.22,37.083,1,36.7,1,36.285v-6.866
		c0-0.418,0.223-0.804,0.585-1.011s0.807-0.206,1.168,0.004l16.195,9.457l21.167-12.172V21.58L19.525,33.42
		c-0.362,0.208-0.808,0.206-1.168-0.004L1.579,23.618C1.218,23.409,0.998,23.021,1,22.605c0.002-0.417,0.228-0.8,0.59-1.006
		L23.979,8.905c0.402-0.229,0.902-0.197,1.274,0.081c0.37,0.279,0.541,0.75,0.435,1.201l-2.83,11.952
		c-0.119,0.499-0.55,0.863-1.062,0.894l-7.969,0.535c-0.649,0.046-1.195-0.448-1.235-1.09c-0.04-0.642,0.449-1.195,1.09-1.235
		l7.106-0.482l2.016-8.511L4.501,22.627l14.447,8.436L40.7,18.557c0.361-0.208,0.804-0.207,1.165,0.002
		c0.36,0.208,0.582,0.592,0.582,1.007v6.806c0,0.417-0.223,0.802-0.584,1.01L19.525,40.226c-0.362,0.207-0.808,0.206-1.168-0.005
		L3.331,31.448v4.168l15.61,9.115L40.69,31.928c0.555-0.327,1.269-0.142,1.595,0.412c0.327,0.554,0.142,1.269-0.413,1.595
		L19.535,47.086C19.353,47.193,19.148,47.247,18.944,47.247"/>
	<path fill="#FFFFFF" d="M119.666,19.669h-4.922c-0.832,0-1.506,0.675-1.506,1.506c0,0.021,0.006,0.041,0.006,0.062
		c-0.007,0.06-0.018,0.118-0.018,0.181v8.636c0,0.845,0.684,1.528,1.528,1.528c0.843,0,1.528-0.684,1.528-1.528v-7.375l3.383-0.009
		c3.941,0,6.514,2.708,6.514,6.381v0.053c0,3.672-2.572,6.324-6.514,6.324l-4.922-0.01c-0.832,0-1.506,0.674-1.506,1.506
		s0.674,1.506,1.506,1.506h4.922c5.896,0,9.971-4.101,9.971-9.379v-0.055C129.637,23.716,125.563,19.669,119.666,19.669"/>
	<path fill="#FFFFFF" d="M139.03,19.669h-4.922c-0.833,0-1.508,0.675-1.508,1.506c0,0.042,0.011,0.081,0.013,0.122
		c-0.002,0.04-0.013,0.079-0.013,0.121v8.636c0,0.845,0.686,1.528,1.529,1.528s1.528-0.684,1.528-1.528v-7.375l3.372-0.009
		c3.94,0,6.514,2.708,6.514,6.381v0.053c0,3.672-2.573,6.324-6.514,6.324l-4.922-0.01c-0.833,0-1.508,0.674-1.508,1.506
		s0.675,1.506,1.508,1.506h4.922c5.896,0,9.97-4.101,9.97-9.379v-0.055C149,23.716,144.927,19.669,139.03,19.669"/>
	<path fill="#FFFFFF" d="M84.117,19.669h-5.735c-0.938,0-1.66,0.724-1.66,1.662V36.93c0,0.911,0.722,1.634,1.66,1.634
		c0.911,0,1.635-0.723,1.635-1.634v-2.206V32.4v-2.977v-0.999V22.67h3.832c2.466,0,4.048,1.153,4.048,3.351v0.054
		c0,1.919-1.502,3.29-3.914,3.341v0.018c-0.043-0.004-0.085-0.013-0.128-0.013c-0.829,0-1.501,0.671-1.501,1.499
		s0.672,1.5,1.501,1.5c0.113,0,0.223-0.016,0.328-0.039c3.924-0.152,7.063-2.331,7.063-6.387v-0.053
		C91.246,22.162,88.512,19.669,84.117,19.669"/>
	<path fill="#FFFFFF" d="M103.12,20.742c-0.377-0.832-1.018-1.34-1.958-1.34h-0.159c-0.938,0-1.607,0.508-1.983,1.34l-6.968,15.543
		c-0.135,0.269-0.214,0.51-0.214,0.751c0,0.857,0.67,1.527,1.525,1.527c0.697,0,1.261-0.374,1.529-1.045l1.581-3.618h3.622
		c0.035,0.002,0.067,0.011,0.103,0.011c0.816,0,1.478-0.662,1.478-1.478c0-0.816-0.661-1.479-1.478-1.479
		c-0.082,0-0.161,0.011-0.239,0.024h-2.228l3.298-7.585l2.425,5.582l0.871,2.003h-0.003l1.983,4.578l0.807,1.854
		c0.296,0.696,0.831,1.152,1.607,1.152c0.886,0,1.555-0.697,1.555-1.581c0-0.215-0.053-0.456-0.188-0.697L103.12,20.742z"/>
	<path fill="#FFFFFF" d="M63.042,19.053c-5.176,0-9.23,4.389-9.23,9.992v0.072c0,5.696,4.125,9.991,9.593,9.991
		c2.917,0,5.148-0.892,7.229-2.886c0.332-0.292,0.516-0.68,0.516-1.09c0-0.795-0.662-1.44-1.476-1.44
		c-0.444,0-0.757,0.218-0.962,0.391c-1.541,1.419-3.253,2.109-5.233,2.109c-3.254,0-5.716-2.176-6.273-5.552
		c-0.107-0.529-0.163-1.054-0.163-1.56c0-0.483,0.049-0.982,0.148-1.493c0.521-3.404,2.844-5.691,5.782-5.691
		c3.728,0,5.383,2.993,5.708,5.889l-5.907-0.007c-0.025,0-0.05,0.002-0.068,0.007l-0.335,0.009v0.052
		c-0.521,0.17-0.881,0.652-0.881,1.216c0,0.563,0.36,1.046,0.881,1.216v0.062l0.403,0.007c0.025,0,0.051-0.003,0.073-0.007h7.587
		c0.854,0,1.549-0.694,1.549-1.549C71.983,23.952,68.912,19.053,63.042,19.053"/>
</g>
</svg>
