<?xml version="1.0" encoding="utf-8"?>
<!-- Generator: Adobe Illustrator 16.0.0, SVG Export Plug-In . SVG Version: 6.00 Build 0)  -->
<!DOCTYPE svg PUBLIC "-//W3C//DTD SVG 1.0//EN" "http://www.w3.org/TR/2001/REC-SVG-20010904/DTD/svg10.dtd">
<svg version="1.0" id="Isolation_Mode" xmlns="http://www.w3.org/2000/svg" xmlns:xlink="http://www.w3.org/1999/xlink" x="0px"
	 y="0px" width="120px" height="120px" viewBox="0 0 120 120" enable-background="new 0 0 120 120" xml:space="preserve">
<polyline fill="none" stroke="#000000" stroke-width="5" stroke-linecap="round" stroke-linejoin="round" stroke-miterlimit="10" points="
	100.311,67.04 100.311,100.715 19.877,100.715 19.877,31.613 66.118,31.613 "/>
<polyline fill="none" stroke="#000000" stroke-width="5" stroke-linecap="round" stroke-linejoin="round" stroke-miterlimit="10" points="
	19.877,73.095 35.141,57.832 66.025,88.717 81.284,73.459 99.94,92.115 "/>
<path fill="none" stroke="#000000" stroke-width="5" stroke-linecap="round" stroke-linejoin="round" stroke-miterlimit="10" d="
	M77.095,52.728c0,5.211,4.831,9.439,10.793,9.439l0,0c5.962,0,10.796-4.228,10.796-9.439V30.155c0-5.216-4.834-9.44-10.796-9.44l0,0
	c-5.962,0-10.793,4.224-10.793,9.44v2.019v5.412c0,3.236,2.626,5.864,5.864,5.864l0,0c3.24,0,5.866-2.627,5.866-5.864v-5.412"/>
</svg>
