<?xml version="1.0" encoding="utf-8"?>
<!-- Generator: Adobe Illustrator 16.0.0, SVG Export Plug-In . SVG Version: 6.00 Build 0)  -->
<!DOCTYPE svg PUBLIC "-//W3C//DTD SVG 1.0//EN" "http://www.w3.org/TR/2001/REC-SVG-20010904/DTD/svg10.dtd">
<svg version="1.0" id="Layer_1" xmlns="http://www.w3.org/2000/svg" xmlns:xlink="http://www.w3.org/1999/xlink" x="0px" y="0px"
	 width="32px" height="32px" viewBox="0 0 32 32" enable-background="new 0 0 32 32" xml:space="preserve">
<path fill="none" stroke="#000000" stroke-width="2" stroke-linecap="round" stroke-linejoin="round" stroke-miterlimit="10" d="
	M17.343,16.977c0,2.607,2.417,4.722,5.399,4.722l0,0c2.982,0,5.4-2.115,5.4-4.722V5.685c0-2.609-2.418-4.723-5.4-4.723l0,0
	c-2.982,0-5.399,2.113-5.399,4.723v1.01v2.707c0,1.619,1.313,2.934,2.934,2.934l0,0c1.621,0,2.935-1.314,2.935-2.934V6.695"/>
<path fill="none" stroke="#000000" stroke-width="2" stroke-linecap="round" stroke-linejoin="round" stroke-miterlimit="10" d="
	M22.742,25.409v3.992c0,0.553-0.447,1-1,1H2.865c-0.552,0-1-0.447-1-1V2.503c0-0.552,0.448-1,1-1h10.351"/>
</svg>
